<svg width="291" height="323" xmlns="http://www.w3.org/2000/svg" xmlns:xlink="http://www.w3.org/1999/xlink" overflow="hidden"><defs><clipPath id="clip0"><rect x="0" y="0" width="291" height="323"/></clipPath></defs><g clip-path="url(#clip0)"><rect x="0" y="0" width="291" height="323.462" fill="#FFFFFF"/><rect x="18" y="87.8539" width="176" height="132.779" fill="#AFABAB"/><path d="M60.7854 142.143 83.7171 171.111 82.1462 172.35 59.2145 143.382ZM82.6224 162.425 84.1636 173.287 73.9344 169.28C73.4197 169.078 73.1662 168.498 73.3681 167.984 73.5701 167.471 74.1511 167.217 74.6658 167.419L83.2973 170.8 81.9404 171.871 80.6399 162.706C80.5623 162.159 80.9432 161.653 81.4907 161.576 82.0381 161.498 82.5448 161.879 82.6224 162.425Z"/><path d="M138 123.794C138 110.561 148.745 99.8339 162 99.8339 175.255 99.8339 186 110.561 186 123.794 186 137.027 175.255 147.754 162 147.754 148.745 147.754 138 137.027 138 123.794Z" stroke="#172C51" stroke-width="2.00229" stroke-miterlimit="8" fill="none" fill-rule="evenodd"/><text font-family="Cambria Math,Cambria Math_MSFontService,sans-serif" font-weight="400" font-size="24" transform="matrix(1 0 0 0.998339 151.301 134)">𝑉</text><text font-family="Cambria Math,Cambria Math_MSFontService,sans-serif" font-weight="400" font-size="18" transform="matrix(1 0 0 0.998339 163.128 139)">2</text><path d="M22 122.796C22 109.563 32.7452 98.8356 46 98.8356 59.2548 98.8356 70 109.563 70 122.796 70 136.029 59.2548 146.756 46 146.756 32.7452 146.756 22 136.029 22 122.796Z" stroke="#172C51" stroke-width="2.00229" stroke-miterlimit="8" fill="none" fill-rule="evenodd"/><text font-family="Cambria Math,Cambria Math_MSFontService,sans-serif" font-weight="400" font-size="24" transform="matrix(1 0 0 0.998339 35.3791 133)">𝑉</text><text font-family="Cambria Math,Cambria Math_MSFontService,sans-serif" font-weight="400" font-size="18" transform="matrix(1 0 0 0.998339 46.652 138)">1</text><path d="M78 190.683C78 177.45 88.7452 166.723 102 166.723 115.255 166.723 126 177.45 126 190.683 126 203.916 115.255 214.643 102 214.643 88.7452 214.643 78 203.916 78 190.683Z" stroke="#172C51" stroke-width="2.00229" stroke-miterlimit="8" fill="#FFFFFF" fill-rule="evenodd"/><text font-family="Cambria Math,Cambria Math_MSFontService,sans-serif" font-weight="400" font-size="24" transform="matrix(1 0 0 0.998339 94.0408 200)">𝑉</text><path d="M236 189.684C236 176.452 246.745 165.724 260 165.724 273.255 165.724 284 176.452 284 189.684 284 202.917 273.255 213.645 260 213.645 246.745 213.645 236 202.917 236 189.684Z" stroke="#172C51" stroke-width="2.00229" stroke-miterlimit="8" fill="none" fill-rule="evenodd"/><text font-family="Cambria Math,Cambria Math_MSFontService,sans-serif" font-weight="400" font-size="24" transform="matrix(1 0 0 0.998339 253.767 199)">Y</text><path d="M0.757744-0.651761 26.579 29.3683 25.0635 30.6718-0.757744 0.651761ZM25.1262 20.7353 27.1147 31.5238 16.7448 27.9444C16.2231 27.7643 15.9461 27.1953 16.1262 26.6735 16.3063 26.1517 16.8753 25.8747 17.3971 26.0548L26.1473 29.0752 24.8383 30.2012 23.1603 21.0977C23.0603 20.5548 23.4192 20.0336 23.9621 19.9336 24.5049 19.8335 25.0261 20.1925 25.1262 20.7353Z" transform="matrix(-1.00166 0 0 1 146.157 141.764)"/><path d="M81 286.523C81 273.291 91.7452 262.563 105 262.563 118.255 262.563 129 273.291 129 286.523 129 299.756 118.255 310.484 105 310.484 91.7452 310.484 81 299.756 81 286.523Z" stroke="#172C51" stroke-width="2.00229" stroke-miterlimit="8" fill="none" fill-rule="evenodd"/><text font-family="Cambria Math,Cambria Math_MSFontService,sans-serif" font-weight="400" font-size="24" transform="matrix(1 0 0 0.998339 99.6807 297)">y</text><path d="M0.489778-0.871256 129.364 71.5755 128.384 73.318-0.489778 0.871256ZM125.052 63.957 130.603 73.4189 119.634 73.5939C119.083 73.6027 118.628 73.1624 118.619 72.6104 118.61 72.0585 119.051 71.6039 119.603 71.5951L128.858 71.4475 128.012 72.9526 123.328 64.9686C123.048 64.4925 123.208 63.8801 123.684 63.6007 124.16 63.3214 124.772 63.4809 125.052 63.957Z" transform="matrix(1.00166 0 0 -1 129 287.061)"/><path d="M0.00752328-0.999456 108.364-0.183813 108.349 1.8151-0.00752328 0.999456ZM100.907-4.76819 110.341 0.830578 100.824 6.28669C100.345 6.56123 99.734 6.39557 99.4595 5.91669 99.1849 5.4378 99.3506 4.82703 99.8295 4.55249L107.86-0.0514534 107.847 1.67516 99.8867-3.04915C99.412-3.33087 99.2556-3.94406 99.5373-4.41876 99.819-4.89346 100.432-5.0499 100.907-4.76819Z" transform="matrix(1.00166 0 0 -1 126 190.515)"/><path d="M78 31.9469C78 18.7141 88.7452 7.98674 102 7.98674 115.255 7.98674 126 18.7141 126 31.9469 126 45.1797 115.255 55.907 102 55.907 88.7452 55.907 78 45.1797 78 31.9469Z" stroke="#172C51" stroke-width="2.00229" stroke-miterlimit="8" fill="none" fill-rule="evenodd"/><text font-family="Cambria Math,Cambria Math_MSFontService,sans-serif" font-weight="400" font-size="24" transform="matrix(1 0 0 0.998339 92.5345 42)">T</text><path d="M103.001 55.907 103.001 164.363 100.999 164.363 100.999 55.907ZM107.537 156.87 102 166.346 96.4633 156.87C96.1847 156.394 96.346 155.782 96.8236 155.503 97.3012 155.225 97.9142 155.386 98.1928 155.863L102.865 163.859 101.135 163.859 105.807 155.863C106.086 155.386 106.699 155.225 107.177 155.503 107.654 155.782 107.815 156.394 107.537 156.87Z"/><path d="M126.031 30.9479 132.366 31.1424 138.731 31.7219 151.326 33.9732 163.728 37.6066 175.825 42.5194 187.519 48.6122 198.712 55.7861 209.308 63.943 219.208 72.985 228.315 82.8148 236.53 93.3353 243.756 104.45 249.892 116.061 254.841 128.073 258.501 140.389 260.768 152.896 261.352 159.217 261.486 163.53 259.485 163.592 259.352 159.31 259.355 159.37 258.778 153.122 258.79 153.209 256.54 140.799 256.565 140.905 252.936 128.691 252.97 128.786 248.059 116.866 248.099 116.952 242.006 105.422 242.051 105.5 234.874 94.4598 234.924 94.5302 226.761 84.0771 226.816 84.1412 217.766 74.373 217.825 74.4317 207.987 65.4463 208.052 65.5003 197.524 57.3954 197.594 57.445 186.475 50.3186 186.553 50.3636 174.941 44.3135 175.027 44.3532 163.021 39.4773 163.116 39.5105 150.814 35.9065 150.92 35.9313 138.421 33.6972 138.506 33.7087 132.214 33.1359 132.274 33.1395 125.969 32.9459ZM265.786 155.9 260.547 165.543 254.718 156.244C254.425 155.776 254.567 155.159 255.036 154.866 255.504 154.574 256.122 154.715 256.416 155.183L261.334 163.03 259.606 163.084 264.026 154.947C264.29 154.462 264.898 154.282 265.384 154.545 265.87 154.808 266.05 155.415 265.786 155.9Z"/></g></svg>