<?xml version="1.0" encoding="UTF-8"?>
<!DOCTYPE svg PUBLIC "-//W3C//DTD SVG 1.1//EN" "http://www.w3.org/Graphics/SVG/1.1/DTD/svg11.dtd">
<svg xmlns="http://www.w3.org/2000/svg" version="1.1" width="291px" height="323px" style="shape-rendering:geometricPrecision; text-rendering:geometricPrecision; image-rendering:optimizeQuality; fill-rule:evenodd; clip-rule:evenodd" xmlns:xlink="http://www.w3.org/1999/xlink">
<g><path style="opacity:1" fill="#fefefe" d="M -0.5,-0.5 C 96.5,-0.5 193.5,-0.5 290.5,-0.5C 290.5,107.167 290.5,214.833 290.5,322.5C 193.5,322.5 96.5,322.5 -0.5,322.5C -0.5,214.833 -0.5,107.167 -0.5,-0.5 Z"/></g>
<g><path style="opacity:1" fill="#333c50" d="M 126.5,30.5 C 125.167,31.1667 125.167,31.8333 126.5,32.5C 124.85,46.8168 116.85,54.8168 102.5,56.5C 101.833,55.1667 101.167,55.1667 100.5,56.5C 85.4831,54.6487 77.4831,46.1487 76.5,31C 79.4147,14.0809 89.4147,6.08093 106.5,7C 118.795,10.1228 125.462,17.9561 126.5,30.5 Z"/></g>
<g><path style="opacity:1" fill="#f9fafa" d="M 96.5,8.5 C 115.684,8.18273 124.851,17.5161 124,36.5C 119.673,50.5865 110.173,56.4199 95.5,54C 82.969,49.1116 77.469,39.9449 79,26.5C 81.6834,17.318 87.5167,11.318 96.5,8.5 Z"/></g>
<g><path style="opacity:1" fill="#0d0d0e" d="M 93.5,25.5 C 97.5,25.5 101.5,25.5 105.5,25.5C 105.79,29.554 105.123,30.054 103.5,27C 102.552,26.5172 101.552,26.3505 100.5,26.5C 99.9264,31.6483 100.593,36.4816 102.5,41C 100.5,41.6667 98.5,41.6667 96.5,41C 98.407,36.4816 99.0736,31.6483 98.5,26.5C 96.0885,26.1367 94.5885,27.1367 94,29.5C 93.51,28.2068 93.3433,26.8734 93.5,25.5 Z"/></g>
<g><path style="opacity:1" fill="#fdfdfd" d="M 126.5,32.5 C 172.157,36.74 208.324,57.4067 235,94.5C 246.561,111.176 254.227,129.509 258,149.5C 258.667,152.167 258.667,154.833 258,157.5C 257.167,156.5 256.333,155.5 255.5,154.5C 255.167,155 254.833,155.5 254.5,156C 256.045,158.927 257.712,161.76 259.5,164.5C 250.202,164.731 243.035,168.731 238,176.5C 236.441,180.266 234.941,183.932 233.5,187.5C 231.446,186.391 229.279,185.391 227,184.5C 226.5,184.667 226,184.833 225.5,185C 226.551,186.385 227.884,187.385 229.5,188C 219.839,188.5 210.172,188.666 200.5,188.5C 198.167,188.5 195.833,188.5 193.5,188.5C 193.5,154.833 193.5,121.167 193.5,87.5C 163.167,87.5 132.833,87.5 102.5,87.5C 102.5,77.1667 102.5,66.8333 102.5,56.5C 116.85,54.8168 124.85,46.8168 126.5,32.5 Z"/></g>
<g><path style="opacity:1" fill="#060304" d="M 102.5,56.5 C 102.5,66.8333 102.5,77.1667 102.5,87.5C 102.333,111.502 102.5,135.502 103,159.5C 103.615,157.884 104.615,156.551 106,155.5C 106.167,156 106.333,156.5 106.5,157C 104.921,159.737 103.588,162.571 102.5,165.5C 101.833,165.5 101.167,165.5 100.5,165.5C 99.5716,162.477 98.2383,159.643 96.5,157C 96.8333,156.5 97.1667,156 97.5,155.5C 98.5836,156.665 99.4169,157.998 100,159.5C 100.5,135.502 100.667,111.502 100.5,87.5C 100.5,77.1667 100.5,66.8333 100.5,56.5C 101.167,55.1667 101.833,55.1667 102.5,56.5 Z"/></g>
<g><path style="opacity:1" fill="#aeaaa9" d="M 102.5,87.5 C 132.833,87.5 163.167,87.5 193.5,87.5C 193.5,121.167 193.5,154.833 193.5,188.5C 171.167,188.5 148.833,188.5 126.5,188.5C 125.794,182.425 123.461,177.092 119.5,172.5C 123.032,171.737 126.365,170.403 129.5,168.5C 128.224,167.355 126.891,167.355 125.5,168.5C 124.479,167.998 124.312,167.332 125,166.5C 132.07,158.937 138.903,151.27 145.5,143.5C 160.087,151.939 172.587,149.606 183,136.5C 190.439,118.216 184.939,105.716 166.5,99C 151.97,97.6816 142.136,103.848 137,117.5C 136.333,121.167 136.333,124.833 137,128.5C 138.921,133.339 141.088,138.006 143.5,142.5C 136.169,150.666 129.002,159 122,167.5C 122.218,165.413 122.051,163.413 121.5,161.5C 120.205,164.012 119.539,166.679 119.5,169.5C 118.778,169.918 118.278,170.584 118,171.5C 113.544,167.689 108.377,165.689 102.5,165.5C 103.588,162.571 104.921,159.737 106.5,157C 106.333,156.5 106.167,156 106,155.5C 104.615,156.551 103.615,157.884 103,159.5C 102.5,135.502 102.333,111.502 102.5,87.5 Z"/></g>
<g><path style="opacity:1" fill="#1a1a1b" d="M 126.5,30.5 C 162.277,33.2259 192.944,47.0592 218.5,72C 242.452,95.9723 256.618,124.806 261,158.5C 261.956,157.421 262.789,156.255 263.5,155C 264.332,154.312 264.998,154.479 265.5,155.5C 263.568,158.366 261.901,161.366 260.5,164.5C 260.167,164.5 259.833,164.5 259.5,164.5C 257.712,161.76 256.045,158.927 254.5,156C 254.833,155.5 255.167,155 255.5,154.5C 256.333,155.5 257.167,156.5 258,157.5C 258.667,154.833 258.667,152.167 258,149.5C 254.227,129.509 246.561,111.176 235,94.5C 208.324,57.4067 172.157,36.74 126.5,32.5C 125.167,31.8333 125.167,31.1667 126.5,30.5 Z"/></g>
<g><path style="opacity:1" fill="#2f354c" d="M 145.5,143.5 C 145.833,142.833 146.167,142.167 146.5,141.5C 145.391,141.557 144.391,141.89 143.5,142.5C 141.088,138.006 138.921,133.339 137,128.5C 136.333,124.833 136.333,121.167 137,117.5C 142.136,103.848 151.97,97.6816 166.5,99C 184.939,105.716 190.439,118.216 183,136.5C 172.587,149.606 160.087,151.939 145.5,143.5 Z"/></g>
<g><path style="opacity:1" fill="#aba8a9" d="M 146.5,141.5 C 135.039,127.947 136.039,115.447 149.5,104C 161.05,98.0726 171.217,99.906 180,109.5C 187.061,121.472 185.561,132.306 175.5,142C 165.628,148.073 155.962,147.906 146.5,141.5 Z"/></g>
<g><path style="opacity:1" fill="#1d1a1a" d="M 156.5,130.5 C 157.762,126.809 159.429,123.309 161.5,120C 161.355,119.228 161.022,118.561 160.5,118C 162.167,117.333 163.833,117.333 165.5,118C 162.601,122.322 159.601,126.489 156.5,130.5 Z"/></g>
<g><path style="opacity:1" fill="#181515" d="M 156.5,130.5 C 156.585,131.995 155.919,132.995 154.5,133.5C 153.672,128.868 153.172,124.202 153,119.5C 152.5,119 152,118.5 151.5,118C 153.167,117.333 154.833,117.333 156.5,118C 155.178,122.267 155.178,126.434 156.5,130.5 Z"/></g>
<g><path style="opacity:1" fill="#2d2c2b" d="M 165.5,127.5 C 168.278,127.022 170.278,128.022 171.5,130.5C 170.408,133.094 168.741,135.261 166.5,137C 168.424,137.179 170.091,137.346 171.5,137.5C 168.894,138.652 166.227,138.818 163.5,138C 165.888,135.95 167.888,133.616 169.5,131C 168.407,127.88 166.907,127.713 165,130.5C 164.53,129.423 164.697,128.423 165.5,127.5 Z"/></g>
<g><path style="opacity:1" fill="#120f0f" d="M 146.5,141.5 C 146.167,142.167 145.833,142.833 145.5,143.5C 138.903,151.27 132.07,158.937 125,166.5C 124.312,167.332 124.479,167.998 125.5,168.5C 126.891,167.355 128.224,167.355 129.5,168.5C 126.365,170.403 123.032,171.737 119.5,172.5C 119.5,171.5 119.5,170.5 119.5,169.5C 119.539,166.679 120.205,164.012 121.5,161.5C 122.051,163.413 122.218,165.413 122,167.5C 129.002,159 136.169,150.666 143.5,142.5C 144.391,141.89 145.391,141.557 146.5,141.5 Z"/></g>
<g><path style="opacity:1" fill="#333a51" d="M 259.5,164.5 C 259.833,164.5 260.167,164.5 260.5,164.5C 280.729,168.617 287.895,180.617 282,200.5C 276.755,209.377 268.922,214.044 258.5,214.5C 256.393,213.532 254.059,213.198 251.5,213.5C 241.563,208.908 235.896,201.242 234.5,190.5C 234.611,189.883 234.944,189.383 235.5,189C 234.584,188.722 233.918,188.222 233.5,187.5C 234.941,183.932 236.441,180.266 238,176.5C 243.035,168.731 250.202,164.731 259.5,164.5 Z"/></g>
<g><path style="opacity:1" fill="#f9fafa" d="M 253.5,166.5 C 273.207,165.708 282.707,175.041 282,194.5C 277.519,207.641 268.352,213.475 254.5,212C 241.359,207.519 235.525,198.352 237,184.5C 239.619,175.719 245.119,169.719 253.5,166.5 Z"/></g>
<g><path style="opacity:1" fill="#080708" d="M 233.5,187.5 C 233.918,188.222 234.584,188.722 235.5,189C 234.944,189.383 234.611,189.883 234.5,190.5C 231.607,192.293 228.607,193.46 225.5,194C 226.551,192.615 227.884,191.615 229.5,191C 217.505,190.5 205.505,190.333 193.5,190.5C 171.149,190.245 148.816,190.578 126.5,191.5C 125.957,191.44 125.624,191.107 125.5,190.5C 150.663,189.833 175.663,189.167 200.5,188.5C 210.172,188.666 219.839,188.5 229.5,188C 227.884,187.385 226.551,186.385 225.5,185C 226,184.833 226.5,184.667 227,184.5C 229.279,185.391 231.446,186.391 233.5,187.5 Z"/></g>
<g><path style="opacity:1" fill="#aeaaa9" d="M 100.5,87.5 C 100.667,111.502 100.5,135.502 100,159.5C 99.4169,157.998 98.5836,156.665 97.5,155.5C 97.1667,156 96.8333,156.5 96.5,157C 98.2383,159.643 99.5716,162.477 100.5,165.5C 94.0135,165.912 88.3468,168.245 83.5,172.5C 74.2222,184.103 74.2222,195.77 83.5,207.5C 98.0264,219.131 111.193,217.797 123,203.5C 125.056,199.732 126.222,195.732 126.5,191.5C 148.816,190.578 171.149,190.245 193.5,190.5C 193.5,200.5 193.5,210.5 193.5,220.5C 134.833,220.5 76.1667,220.5 17.5,220.5C 17.5,176.167 17.5,131.833 17.5,87.5C 45.1667,87.5 72.8333,87.5 100.5,87.5 Z"/></g>
<g><path style="opacity:1" fill="#161313" d="M 61.5,143.5 C 67.6475,151.097 73.8142,158.764 80,166.5C 80.2022,164.744 80.7022,163.078 81.5,161.5C 82.7063,165.072 83.373,168.738 83.5,172.5C 79.5969,171.547 75.9302,170.047 72.5,168C 74.5568,167.695 76.5568,167.695 78.5,168C 72.2788,159.713 65.9455,151.546 59.5,143.5C 59.9377,142.494 60.6043,142.494 61.5,143.5 Z"/></g>
<g><path style="opacity:1" fill="#2e364c" d="M 61.5,143.5 C 60.6043,142.494 59.9377,142.494 59.5,143.5C 42.7445,151.198 30.2445,146.864 22,130.5C 18.5601,117.142 22.7267,106.975 34.5,100C 49.9173,94.6917 61.4173,99.1917 69,113.5C 71.3399,121.095 70.6732,128.428 67,135.5C 64.9205,138.065 63.0872,140.732 61.5,143.5 Z"/></g>
<g><path style="opacity:1" fill="#aca9a9" d="M 40.5,99.5 C 59.684,99.1827 68.8507,108.516 68,127.5C 63.6133,140.78 54.4467,146.613 40.5,145C 27.3587,140.519 21.5254,131.352 23,117.5C 25.6834,108.318 31.5167,102.318 40.5,99.5 Z"/></g>
<g><path style="opacity:1" fill="#1f1d1d" d="M 51.5,126.5 C 52.8904,129.853 54.2237,133.353 55.5,137C 50.627,137.751 49.2937,137.584 51.5,136.5C 51.2805,132.956 51.2805,129.622 51.5,126.5 Z"/></g>
<g><path style="opacity:1" fill="#171514" d="M 40.5,129.5 C 40.5852,130.995 39.9185,131.995 38.5,132.5C 37.6717,127.868 37.1717,123.202 37,118.5C 36.5,118 36,117.5 35.5,117C 37.1667,116.333 38.8333,116.333 40.5,117C 39.178,121.267 39.178,125.434 40.5,129.5 Z"/></g>
<g><path style="opacity:1" fill="#1d1b1a" d="M 40.5,129.5 C 41.7622,125.809 43.4288,122.309 45.5,119C 45.3552,118.228 45.0219,117.561 44.5,117C 46.1667,116.333 47.8333,116.333 49.5,117C 46.601,121.322 43.601,125.489 40.5,129.5 Z"/></g>
<g><path style="opacity:1" fill="#181818" d="M 253.5,183.5 C 254.946,182.387 256.613,182.22 258.5,183C 257.932,185.755 258.765,188.255 261,190.5C 262.707,188.091 263.54,185.425 263.5,182.5C 264.873,182.343 266.207,182.51 267.5,183C 262.899,187.164 261.233,192.164 262.5,198C 260.833,198.667 259.167,198.667 257.5,198C 260.524,192.156 259.191,187.323 253.5,183.5 Z"/></g>
<g><path style="opacity:1" fill="#333848" d="M 100.5,165.5 C 101.167,165.5 101.833,165.5 102.5,165.5C 108.377,165.689 113.544,167.689 118,171.5C 118.278,170.584 118.778,169.918 119.5,169.5C 119.5,170.5 119.5,171.5 119.5,172.5C 123.461,177.092 125.794,182.425 126.5,188.5C 148.833,188.5 171.167,188.5 193.5,188.5C 195.833,188.5 198.167,188.5 200.5,188.5C 175.663,189.167 150.663,189.833 125.5,190.5C 125.624,191.107 125.957,191.44 126.5,191.5C 126.222,195.732 125.056,199.732 123,203.5C 111.193,217.797 98.0264,219.131 83.5,207.5C 74.2222,195.77 74.2222,184.103 83.5,172.5C 88.3468,168.245 94.0135,165.912 100.5,165.5 Z"/></g>
<g><path style="opacity:1" fill="#f9fafa" d="M 95.5,167.5 C 109.619,165.636 119.119,171.302 124,184.5C 125.356,204.144 116.189,213.644 96.5,213C 83.3587,208.519 77.5254,199.352 79,185.5C 81.6193,176.719 87.1193,170.719 95.5,167.5 Z"/></g>
<g><path style="opacity:1" fill="#252525" d="M 99.5,196.5 C 100.762,192.809 102.429,189.309 104.5,186C 104.355,185.228 104.022,184.561 103.5,184C 105.167,183.333 106.833,183.333 108.5,184C 105.601,188.322 102.601,192.489 99.5,196.5 Z"/></g>
<g><path style="opacity:1" fill="#1d1d1d" d="M 99.5,196.5 C 99.5852,197.995 98.9185,198.995 97.5,199.5C 96.6717,194.868 96.1717,190.202 96,185.5C 95.5,185 95,184.5 94.5,184C 96.1667,183.333 97.8333,183.333 99.5,184C 98.178,188.267 98.178,192.434 99.5,196.5 Z"/></g>
<g><path style="opacity:1" fill="#1c1c1c" d="M 251.5,213.5 C 254.059,213.198 256.393,213.532 258.5,214.5C 257.18,217.806 255.347,220.806 253,223.5C 252.464,221.433 252.964,219.599 254.5,218C 212.665,240.591 170.998,263.758 129.5,287.5C 128.957,287.44 128.624,287.107 128.5,286.5C 129.243,285.818 129.909,285.151 130.5,284.5C 171.301,261.932 211.968,239.099 252.5,216C 250.744,215.798 249.078,215.298 247.5,214.5C 248.689,213.571 250.022,213.238 251.5,213.5 Z"/></g>
<g><path style="opacity:1" fill="#343e53" d="M 130.5,284.5 C 129.909,285.151 129.243,285.818 128.5,286.5C 128.624,287.107 128.957,287.44 129.5,287.5C 126.442,304.047 116.442,311.88 99.5,311C 81.5749,303.875 76.0749,291.375 83,273.5C 92.836,260.447 105.003,257.947 119.5,266C 125.127,271.101 128.794,277.267 130.5,284.5 Z"/></g>
<g><path style="opacity:1" fill="#f9fafa" d="M 98.5,263.5 C 112.607,261.631 122.107,267.297 127,280.5C 128.616,297.278 121.116,306.944 104.5,309.5C 86.3643,306.198 79.1976,295.532 83,277.5C 86.4922,270.834 91.6589,266.168 98.5,263.5 Z"/></g>
<g><path style="opacity:1" fill="#252525" d="M 108.5,289.5 C 107.74,293.027 106.406,296.36 104.5,299.5C 103.15,300.95 101.484,301.617 99.5,301.5C 99.3802,298.795 100.38,298.128 102.5,299.5C 104.601,294.566 103.601,290.066 99.5,286C 101.167,285.333 102.833,285.333 104.5,286C 103.499,288.698 103.999,291.198 106,293.5C 106.2,291.68 107.034,290.347 108.5,289.5 Z"/></g>
<g><path style="opacity:1" fill="#0e0e0e" d="M 108.5,289.5 C 108.67,288.178 108.337,287.011 107.5,286C 108.833,285.333 110.167,285.333 111.5,286C 110.364,287.145 109.364,288.312 108.5,289.5 Z"/></g>
</svg>
